# This file uses centimeters as units for non-parametric coordinates.

mtllib plank_lp.mtl
g default
v -0.388249 0.073222 2.242428
v -0.335286 0.122029 2.189010
v 0.335286 0.122029 2.189010
v 0.388249 0.073222 2.242428
v -0.335286 0.122029 -2.189010
v -0.388249 0.073222 -2.242428
v 0.335286 0.122029 -2.189010
v 0.388249 0.073222 -2.242428
v -0.324692 -0.122029 2.178325
v -0.388249 -0.063459 2.242428
v 0.324692 -0.122029 2.178325
v 0.388249 -0.063459 2.242428
v -0.324692 -0.122029 -2.178325
v -0.388249 -0.063459 -2.242428
v 0.324692 -0.122029 -2.178325
v 0.388249 -0.063459 -2.242428
vt 0.153848 0.826701
vt 0.153450 0.806220
vt 0.826077 0.152794
vt 0.276179 0.994696
vt 0.032742 0.702194
vt 0.053115 0.703391
vt 0.725076 0.029187
vt 0.725502 0.049700
vt 0.967774 0.298118
vt 0.992301 0.299600
vt 0.297355 0.974385
vt 0.296936 0.949746
vt 0.870243 0.198168
vt 0.869783 0.173484
vt 0.199686 0.850109
vt 0.175200 0.848672
vt 0.132728 0.847023
vt 0.012342 0.681136
vt 0.704673 0.008136
vt 0.866878 0.175081
vt 0.174251 0.847753
vt 0.011900 0.722826
vt 0.154357 0.869355
vt 0.846478 0.154023
vn -0.646411 0.404707 0.646811
vn -0.284492 0.916174 0.282292
vn -0.284492 0.916174 -0.282292
vn -0.646411 0.404707 -0.646811
vn -0.284492 0.916174 0.282292
vn -0.646411 0.404707 0.646811
vn 0.646411 0.404707 0.646811
vn 0.284492 0.916174 0.282292
vn 0.284492 0.916174 0.282292
vn 0.646411 0.404707 0.646811
vn 0.646411 0.404707 -0.646811
vn 0.284492 0.916174 -0.282292
vn -0.646411 0.404707 -0.646811
vn -0.284492 0.916174 -0.282292
vn 0.284492 0.916174 -0.282292
vn 0.646411 0.404707 -0.646811
vn -0.284492 0.916174 0.282292
vn 0.284492 0.916174 0.282292
vn 0.284492 0.916174 -0.282292
vn -0.284492 0.916174 -0.282292
vn -0.284492 -0.916174 0.282292
vn -0.646411 -0.404707 0.646811
vn -0.646411 -0.404707 -0.646811
vn -0.284492 -0.916174 -0.282292
vn -0.646411 -0.404707 0.646811
vn -0.284492 -0.916174 0.282292
vn 0.284492 -0.916174 0.282292
vn 0.646411 -0.404707 0.646811
vn 0.646411 -0.404707 0.646811
vn 0.284492 -0.916174 0.282292
vn 0.284492 -0.916174 -0.282292
vn 0.646411 -0.404707 -0.646811
vn -0.284492 -0.916174 -0.282292
vn -0.646411 -0.404707 -0.646811
vn 0.646411 -0.404707 -0.646811
vn 0.284492 -0.916174 -0.282292
vn -0.284492 -0.916174 -0.282292
vn 0.284492 -0.916174 -0.282292
vn 0.284492 -0.916174 0.282292
vn -0.284492 -0.916174 0.282292
vn -0.646411 -0.404707 0.646811
vn 0.646411 -0.404707 0.646811
vn 0.646411 0.404707 0.646811
vn -0.646411 0.404707 0.646811
vn -0.646411 0.404707 -0.646811
vn 0.646411 0.404707 -0.646811
vn 0.646411 -0.404707 -0.646811
vn -0.646411 -0.404707 -0.646811
vn 0.646411 -0.404707 0.646811
vn 0.646411 -0.404707 -0.646811
vn 0.646411 0.404707 -0.646811
vn 0.646411 0.404707 0.646811
vn -0.646411 -0.404707 -0.646811
vn -0.646411 -0.404707 0.646811
vn -0.646411 0.404707 0.646811
vn -0.646411 0.404707 -0.646811
s off
g plank_lp:Mesh
usemtl plank_lp:initialShadingGroup
f 1/1/1 2/2/2 5/3/3 6/24/4
f 2/2/5 1/1/6 4/5/7 3/6/8
f 3/6/9 4/5/10 8/7/11 7/8/12
f 6/24/13 5/3/14 7/8/15 8/7/16
f 2/2/17 3/6/18 7/8/19 5/3/20
f 9/9/21 10/10/22 14/11/23 13/12/24
f 10/10/25 9/9/26 11/13/27 12/14/28
f 12/14/29 11/13/30 15/15/31 16/16/32
f 13/12/33 14/11/34 16/16/35 15/15/36
f 13/12/37 15/15/38 11/13/39 9/9/40
f 10/17/41 12/22/42 4/5/43 1/1/44
f 6/4/45 8/23/46 16/16/47 14/11/48
f 12/18/49 16/19/50 8/7/51 4/5/52
f 14/20/53 10/21/54 1/1/55 6/24/56
